<svg xmlns="http://www.w3.org/2000/svg" version="1.1" xmlns:xlink="http://www.w3.org/1999/xlink" viewBox="0 0 8.36383045313983 6.088713146313385"><g transform="matrix(1,0,0,1,0.5931817060621016,4.409531440251284)"><g clip-path="url(#SvgjsClipPath1001)"><g clip-path="url(#SvgjsClipPath1000f3b181fa-d6b8-47f3-bbbe-932d3be031cc)"><path d=" M 5.095497314292203 -1.6300611990328373 L 5.174485803304304 -1.7090496880449386 C 5.353474497617437 -1.8880383823580715 5.353474497617437 -2.17831135183111 5.174485803304304 -2.3569109402870403 L 5.095497314292203 -2.435899429299141 L 5.2733186910337295 -2.6137208060406665 C 5.32234602904124 -2.6627481440481766 5.32234602904124 -2.7421257389174807 5.2733186910337295 -2.7911530769249904 C 5.224291353026219 -2.8401804149325 5.144913758156916 -2.8401804149325 5.095886420149407 -2.7911530769249904 L 4.91806504340788 -2.6133317001834646 L 4.786547263673448 -2.7448494799178973 L 4.964368640414975 -2.922670856659422 C 5.0133959784224835 -2.971698194666933 5.0133959784224835 -3.0510757895362355 4.964368640414975 -3.100103127543746 C 4.915341302407464 -3.1491304655512566 4.835963707538159 -3.1491304655512566 4.78693636953065 -3.100103127543746 L 4.609114992789124 -2.9222817508022203 L 4.4775972130546915 -3.053799530536653 L 4.655418589796218 -3.2316209072781787 C 4.704445927803727 -3.280648245285689 4.704445927803727 -3.360025840154991 4.655418589796218 -3.4090531781625026 C 4.606391251788708 -3.4580805161700128 4.527013656919404 -3.4580805161700128 4.477986318911894 -3.4090531781625026 L 4.300164942170368 -3.2312318014209764 L 4.168647162435936 -3.362749581155409 L 4.346468539177462 -3.540570957896935 C 4.395495877184971 -3.5895982959044455 4.395495877184971 -3.6689758907737478 4.346468539177462 -3.7180032287812583 L 4.346468539177462 -3.7180032287812583 C 4.297441201169951 -3.7670305667887694 4.218063606300648 -3.7670305667887694 4.169036268293137 -3.7180032287812583 L 3.991214891551612 -3.5401818520397326 L 3.912226402539512 -3.619170341051833 C 3.733237708226379 -3.798159035364966 3.4429647387533406 -3.798159035364966 3.2643651502974094 -3.619170341051833 L 3.1853766612853094 -3.5401818520397326 L 3.007555284543784 -3.7180032287812583 C 2.958527946536273 -3.7670305667887694 2.87915035166697 -3.7670305667887694 2.83012301365946 -3.7180032287812583 L 2.83012301365946 -3.7180032287812583 C 2.78109567565195 -3.6689758907737478 2.78109567565195 -3.5895982959044455 2.83012301365946 -3.540570957896935 L 3.0079443904009855 -3.362749581155409 L 2.8764266106665533 -3.2312318014209764 L 2.698605233925027 -3.4090531781625026 C 2.6495778959175165 -3.4580805161700128 2.570200301048214 -3.4580805161700128 2.521172963040704 -3.4090531781625026 C 2.4721456250331926 -3.360025840154991 2.4721456250331926 -3.280648245285689 2.521172963040704 -3.2316209072781787 L 2.6989943397822294 -3.053799530536653 L 2.5674765600477967 -2.9222817508022203 L 2.389655183306271 -3.100103127543746 C 2.340627845298761 -3.1491304655512566 2.261250250429458 -3.1491304655512566 2.2122229124219475 -3.100103127543746 C 2.163195574414437 -3.0510757895362355 2.163195574414437 -2.971698194666933 2.2122229124219475 -2.922670856659422 L 2.3900442891634732 -2.7448494799178973 L 2.2585265094290405 -2.6133317001834646 L 2.0807051326875152 -2.7911530769249904 C 2.0316777946800046 -2.8401804149325 1.9523001998107021 -2.8401804149325 1.903272861803191 -2.7911530769249904 C 1.8542455237956808 -2.7421257389174807 1.8542455237956808 -2.6627481440481766 1.903272861803191 -2.6137208060406665 L 2.0810942385447175 -2.435899429299141 L 2.0021057495326167 -2.3569109402870403 C 1.8231170552194838 -2.1779222459739067 1.8231170552194838 -1.8876492765008686 2.0021057495326167 -1.7090496880449386 L 2.0810942385447175 -1.6300611990328373 L 1.903272861803191 -1.452239822291312 C 1.8542455237956808 -1.4032124842838019 1.8542455237956808 -1.3238348894144991 1.903272861803191 -1.274807551406988 C 1.9523001998107021 -1.2257802133994784 2.0316777946800046 -1.2257802133994784 2.0807051326875152 -1.274807551406988 L 2.2585265094290405 -1.4526289281485147 L 2.3900442891634732 -1.321111148414082 L 2.2122229124219475 -1.1432897716725554 C 2.163195574414437 -1.0942624336650457 2.163195574414437 -1.014884838795743 2.2122229124219475 -0.9658575007882328 C 2.261250250429458 -0.9168301627807218 2.340627845298761 -0.9168301627807218 2.389655183306271 -0.9658575007882328 L 2.5674765600477967 -1.1436788775297586 L 2.6989943397822294 -1.012161097795326 L 2.521172963040704 -0.8343397210538002 C 2.4721456250331926 -0.7853123830462891 2.4721456250331926 -0.7059347881769864 2.521172963040704 -0.6569074501694767 C 2.570200301048214 -0.6078801121619666 2.6495778959175165 -0.6078801121619666 2.698605233925027 -0.6569074501694767 L 2.8764266106665533 -0.834728826911002 L 3.0079443904009855 -0.7032110471765693 L 2.83012301365946 -0.525389670435044 C 2.78109567565195 -0.4763623324275339 2.78109567565195 -0.39698473755823027 2.83012301365946 -0.34795739955072014 L 2.83012301365946 -0.34795739955072014 C 2.87915035166697 -0.29893006154321045 2.958527946536273 -0.29893006154321045 3.007555284543784 -0.34795739955072014 L 3.1853766612853094 -0.5257787762922459 L 3.2643651502974094 -0.4467902872801459 C 3.4433538446105425 -0.2678015929670128 3.7336268140835807 -0.2678015929670128 3.912226402539512 -0.4467902872801459 L 3.991214891551612 -0.5257787762922459 L 4.169036268293137 -0.34795739955072014 C 4.218063606300648 -0.29893006154321045 4.297441201169951 -0.29893006154321045 4.346468539177462 -0.34795739955072014 L 4.346468539177462 -0.34795739955072014 C 4.395495877184971 -0.39698473755823027 4.395495877184971 -0.4763623324275339 4.346468539177462 -0.525389670435044 L 4.168647162435936 -0.7032110471765693 L 4.300164942170368 -0.834728826911002 L 4.477986318911894 -0.6569074501694767 C 4.527013656919404 -0.6078801121619666 4.606391251788708 -0.6078801121619666 4.655418589796218 -0.6569074501694767 C 4.704445927803727 -0.7059347881769864 4.704445927803727 -0.7853123830462891 4.655418589796218 -0.8343397210538002 L 4.4775972130546915 -1.012161097795326 L 4.609114992789124 -1.1436788775297586 L 4.78693636953065 -0.9658575007882328 C 4.835963707538159 -0.9168301627807218 4.915341302407464 -0.9168301627807218 4.964368640414975 -0.9658575007882328 C 5.0133959784224835 -1.014884838795743 5.0133959784224835 -1.0942624336650457 4.964368640414975 -1.1432897716725554 L 4.786547263673448 -1.321111148414082 L 4.91806504340788 -1.4526289281485147 L 5.095886420149407 -1.274807551406988 C 5.144913758156916 -1.2257802133994784 5.224291353026219 -1.2257802133994784 5.2733186910337295 -1.274807551406988 C 5.32234602904124 -1.3238348894144991 5.32234602904124 -1.4032124842838019 5.2733186910337295 -1.452239822291312 L 5.095497314292203 -1.6300611990328373 Z" fill="#503ee1" transform="matrix(1,0,0,1,0,0)" fill-rule="nonzero"></path></g><g clip-path="url(#SvgjsClipPath1000f3b181fa-d6b8-47f3-bbbe-932d3be031cc)"><path d=" M 6.557757125659064 -1.6973765123288649 L 5.24958323374438 -0.38920262041418097 C 5.063979739858803 -0.20359912652860546 4.763200912241301 -0.20359912652860546 4.577986524212928 -0.38920262041418097 L 3.2698126322982444 -1.6973765123288649 C 3.0842091384126684 -1.8829800062144406 3.0842091384126684 -2.183758833831945 3.2698126322982444 -2.3689732218603163 L 4.577986524212928 -3.6771471137750003 C 4.763590018098505 -3.8627506076605753 5.064368845716007 -3.8627506076605753 5.24958323374438 -3.6771471137750003 L 6.557757125659064 -2.3689732218603163 C 6.742971513687435 -2.183758833831945 6.742971513687435 -1.8829800062144395 6.557757125659064 -1.6973765123288649 Z" fill="#4976f2" transform="matrix(1,0,0,1,0,0)" fill-rule="nonzero"></path></g><g clip-path="url(#SvgjsClipPath1000f3b181fa-d6b8-47f3-bbbe-932d3be031cc)"><path d=" M 5.272929585176527 -2.791542182782193 C 5.223902247169017 -2.8405695207897033 5.144524652299715 -2.8405695207897033 5.095497314292203 -2.791542182782193 L 4.917675937550678 -2.613720806040668 L 4.786158157816246 -2.7452385857751 L 4.963979534557771 -2.923059962516626 C 5.013006872565281 -2.9720873005241364 5.013006872565281 -3.0514648953934387 4.963979534557771 -3.1004922334009493 C 4.914952196550262 -3.14951957140846 4.835574601680959 -3.14951957140846 4.786547263673448 -3.1004922334009493 L 4.608725886931921 -2.9226708566594235 L 4.477208107197489 -3.054188636393856 L 4.655029483939016 -3.2320100131353824 C 4.704056821946526 -3.2810373511428925 4.704056821946526 -3.360414946012195 4.655029483939016 -3.4094422840197054 C 4.606002145931505 -3.4584696220272164 4.526624551062202 -3.4584696220272164 4.4775972130546915 -3.4094422840197054 L 4.299775836313167 -3.2316209072781796 L 4.215728971157434 -3.315667772433912 L 3.2690344205838398 -2.3689732218603163 C 3.083430926698265 -2.183369727974741 3.083430926698265 -1.8825909003572376 3.2690344205838398 -1.6973765123288649 L 4.215728971157434 -0.7506819617552711 L 4.299775836313167 -0.8347288269110034 L 4.4775972130546915 -0.6569074501694776 C 4.526624551062202 -0.6078801121619679 4.606002145931505 -0.6078801121619679 4.655029483939016 -0.6569074501694776 C 4.704056821946526 -0.7059347881769877 4.704056821946526 -0.7853123830462905 4.655029483939016 -0.8343397210538015 L 4.477208107197489 -1.0121610977953268 L 4.608725886931921 -1.1436788775297595 L 4.786547263673448 -0.9658575007882342 C 4.835574601680959 -0.9168301627807232 4.914952196550262 -0.9168301627807232 4.963979534557771 -0.9658575007882342 C 5.013006872565281 -1.0148848387957439 5.013006872565281 -1.0942624336650466 4.963979534557771 -1.1432897716725567 L 4.786158157816246 -1.3211111484140834 L 4.917675937550678 -1.452628928148516 L 5.095497314292203 -1.2748075514069894 C 5.144524652299715 -1.2257802133994793 5.223902247169017 -1.2257802133994793 5.272929585176527 -1.2748075514069894 C 5.321956923184038 -1.3238348894145004 5.321956923184038 -1.4032124842838032 5.272929585176527 -1.4522398222913129 L 5.095108208435002 -1.6300611990328386 L 5.174096697447101 -1.7090496880449395 C 5.353085391760235 -1.8880383823580726 5.353085391760235 -2.178311351831111 5.174096697447101 -2.356910940287041 L 5.095108208435002 -2.435899429299142 L 5.272929585176527 -2.613720806040668 C 5.321956923184038 -2.6631372499053794 5.321956923184038 -2.742514844774682 5.272929585176527 -2.791542182782193 Z" fill="#3de9f2" transform="matrix(1,0,0,1,0,0)" fill-rule="nonzero"></path></g><g clip-path="url(#SvgjsClipPath1000f3b181fa-d6b8-47f3-bbbe-932d3be031cc)"><path d=" M 3.9079462381102847 -1.6973765123288649 L 2.599772346195601 -0.38920262041418097 C 2.4141688523100253 -0.20359912652860546 2.113390024692521 -0.20359912652860546 1.9281756366641478 -0.38920262041418097 L 0.6200017447494659 -1.6973765123288649 C 0.43439825086389067 -1.8829800062144406 0.43439825086389067 -2.183758833831945 0.6200017447494659 -2.3689732218603163 L 1.9281756366641485 -3.6771471137750003 C 2.113779130549724 -3.8627506076605753 2.4145579581672285 -3.8627506076605753 2.5997723461956013 -3.6771471137750003 L 3.9079462381102847 -2.3689732218603163 C 4.0931606261386575 -2.183758833831945 4.0931606261386575 -1.8829800062144395 3.9079462381102847 -1.6973765123288649 Z" fill="#ea5ea1" transform="matrix(1,0,0,1,0,0)" fill-rule="nonzero"></path></g><g clip-path="url(#SvgjsClipPath1000f3b181fa-d6b8-47f3-bbbe-932d3be031cc)"><path d=" M 3.9079462381102847 -2.3689732218603163 L 2.9612516875366897 -3.3156677724339114 L 2.876815716523756 -3.2312318014209764 L 2.6989943397822302 -3.4090531781625026 C 2.64996700177472 -3.4580805161700128 2.570589406905418 -3.4580805161700128 2.521562068897907 -3.4090531781625026 C 2.472534730890396 -3.360025840154991 2.472534730890396 -3.280648245285689 2.521562068897907 -3.2316209072781787 L 2.699383445639433 -3.053799530536653 L 2.5678656659050003 -2.9222817508022203 L 2.390044289163474 -3.100103127543746 C 2.3410169511559635 -3.1491304655512566 2.2616393562866612 -3.1491304655512566 2.2126120182791507 -3.100103127543746 C 2.16358468027164 -3.0510757895362355 2.16358468027164 -2.971698194666933 2.2126120182791507 -2.922670856659422 L 2.3904333950206764 -2.7448494799178973 L 2.258915615286244 -2.6133317001834646 L 2.0810942385447184 -2.7911530769249904 C 2.0320669005372074 -2.8401804149325 1.952689305667905 -2.8401804149325 1.9036619676603945 -2.7911530769249904 C 1.8546346296528842 -2.7421257389174807 1.8546346296528842 -2.6627481440481766 1.9036619676603945 -2.6137208060406665 L 2.08148334440192 -2.435899429299141 L 2.0024948553898203 -2.3569109402870403 C 1.8235061610766872 -2.1779222459739067 1.8235061610766872 -1.8876492765008686 2.0024948553898203 -1.7090496880449386 L 2.08148334440192 -1.6300611990328373 L 1.9036619676603945 -1.452239822291312 C 1.8546346296528842 -1.4032124842838019 1.8546346296528842 -1.3238348894144991 1.9036619676603945 -1.274807551406988 C 1.952689305667905 -1.2257802133994784 2.0320669005372074 -1.2257802133994784 2.0810942385447184 -1.274807551406988 L 2.258915615286244 -1.4526289281485147 L 2.3904333950206764 -1.321111148414082 L 2.2126120182791507 -1.1432897716725554 C 2.16358468027164 -1.0942624336650457 2.16358468027164 -1.014884838795743 2.2126120182791507 -0.9658575007882328 C 2.2616393562866612 -0.9168301627807218 2.3410169511559635 -0.9168301627807218 2.390044289163474 -0.9658575007882328 L 2.5678656659050003 -1.1436788775297586 L 2.699383445639433 -1.012161097795326 L 2.521562068897907 -0.8343397210538002 C 2.472534730890396 -0.7853123830462891 2.472534730890396 -0.7059347881769864 2.521562068897907 -0.6569074501694767 C 2.570589406905418 -0.6078801121619666 2.64996700177472 -0.6078801121619666 2.6989943397822302 -0.6569074501694767 L 2.876815716523756 -0.834728826911002 L 2.9612516875366897 -0.7502928558980684 L 3.9079462381102847 -1.696987406471663 C 4.0931606261386575 -1.8829800062144395 4.0931606261386575 -2.183758833831945 3.9079462381102847 -2.3689732218603163 Z" fill="#ff97f8" transform="matrix(1,0,0,1,0,0)" fill-rule="nonzero"></path></g><g clip-path="url(#SvgjsClipPath1000f3b181fa-d6b8-47f3-bbbe-932d3be031cc)"><path d=" M 3.9079462381102847 -2.3689732218603163 L 3.588879435204264 -2.6880400247663374 L 3.2698126322982444 -2.3689732218603163 C 3.0842091384126684 -2.183369727974741 3.0842091384126684 -1.8825909003572376 3.2698126322982444 -1.6973765123288649 L 3.588879435204264 -1.3783097094228451 L 3.9079462381102847 -1.6973765123288649 C 4.0931606261386575 -1.8829800062144395 4.0931606261386575 -2.183758833831945 3.9079462381102847 -2.3689732218603163 Z" fill="#ffffff" transform="matrix(1,0,0,1,0,0)" fill-rule="nonzero"></path></g><g clip-path="url(#SvgjsClipPath1000f3b181fa-d6b8-47f3-bbbe-932d3be031cc)"><path d=" M 3.5935487054906945 -0.5203312942914118 C 3.5005524056193056 -0.5203312942914118 3.4075561057479167 -0.5557399272968357 3.3371279455942706 -0.6265571933076837 L 2.1869310317037876 -1.7767541071981676 C 2.1184484008361535 -1.8452367380658004 2.0807051326875143 -1.9362875086511768 2.0807051326875143 -2.0331748670945915 C 2.0807051326875143 -2.130062225538005 2.1184484008361535 -2.221112996123381 2.1869310317037876 -2.289595626991015 L 3.3371279455942706 -3.4397925408814976 C 3.4787624776159665 -3.5810379670459915 3.708724039222624 -3.5814270729031947 3.85035857124432 -3.4397925408814976 L 5.000555485134802 -2.289595626991015 C 5.069038116002437 -2.221112996123381 5.106781384151075 -2.130062225538005 5.106781384151075 -2.0331748670945915 C 5.106781384151075 -1.9362875086511768 5.069038116002437 -1.8452367380658004 5.000555485134802 -1.7767541071981676 L 3.85035857124432 -0.6265571933076837 C 3.779541305233472 -0.5557399272968357 3.686545005362082 -0.5203312942914118 3.5935487054906945 -0.5203312942914118 Z M 3.5935487054906945 -3.4646953157424556 C 3.5215641219082388 -3.4646953157424556 3.4491904324685794 -3.437457905738283 3.3943265066030324 -3.382593979872736 L 2.2441295927125493 -2.232397065982253 C 2.1908220902758115 -2.1790895635455145 2.161639150985627 -2.1086614033918685 2.161639150985627 -2.033563972951793 C 2.161639150985627 -1.9584665425117176 2.1908220902758115 -1.8876492765008686 2.2441295927125493 -1.834730879921333 L 3.3943265066030324 -0.6845339660308514 C 3.5040543583341273 -0.5748061142997569 3.682653946790057 -0.5748061142997569 3.792381798521152 -0.6845339660308514 L 4.9425787124116365 -1.8347308799213342 C 4.9958862148483725 -1.8880383823580726 5.025069154138558 -1.9584665425117187 5.025069154138558 -2.033563972951794 C 5.025069154138558 -2.10866140339187 4.9958862148483725 -2.1794786694027186 4.9425787124116365 -2.232397065982254 L 3.792381798521152 -3.3825939798727367 C 3.7379069785128083 -3.437457905738283 3.6659223949303517 -3.4646953157424556 3.5935487054906945 -3.4646953157424556 Z" fill="#090338" transform="matrix(1,0,0,1,0,0)" fill-rule="nonzero"></path></g></g><g><path d=" M 0.7635000000000001 0.7590000000000001 L 0.9075 1.068 L 1.053 1.068 L 0.5640000000000001 0.018000000000000016 L 0.489 0.018000000000000016 L 0.045 1.068 L 0.114 1.068 L 0.246 0.7590000000000001 L 0.7635000000000001 0.7590000000000001 M 0.732 0.6915 L 0.2745 0.6915 L 0.4905 0.18600000000000005 L 0.4965 0.18600000000000005 L 0.732 0.6915 M 1.2764919433593749 0.018000000000000016 L 1.2764919433593749 1.068 L 1.412991943359375 1.068 L 1.412991943359375 0.6045 L 1.478991943359375 0.6045 Q 1.520991943359375 0.6045 1.548741943359375 0.6120000000000001 Q 1.576491943359375 0.6195 1.598991943359375 0.6375000000000001 Q 1.6214919433593749 0.6555 1.640991943359375 0.684 Q 1.660491943359375 0.7125000000000001 1.687491943359375 0.7545000000000001 L 1.805991943359375 0.93 Q 1.828491943359375 0.9645 1.850241943359375 0.9930000000000001 Q 1.871991943359375 1.0215 1.897491943359375 1.04175 Q 1.922991943359375 1.062 1.955241943359375 1.074 Q 1.987491943359375 1.086 2.032491943359375 1.086 Q 2.065491943359375 1.086 2.086491943359375 1.083 Q 2.107491943359375 1.08 2.128491943359375 1.068 L 2.128491943359375 1.0125 Q 2.1209919433593747 1.014 2.1134919433593753 1.01475 Q 2.105991943359375 1.0155 2.0984919433593747 1.0155 Q 2.066991943359375 1.0155 2.042991943359375 1.0065 Q 2.018991943359375 0.9975 1.997991943359375 0.9802500000000001 Q 1.976991943359375 0.9630000000000001 1.957491943359375 0.93825 Q 1.9379919433593749 0.9135000000000001 1.916991943359375 0.8820000000000001 Q 1.853991943359375 0.7905 1.8194919433593748 0.7357500000000001 Q 1.7849919433593748 0.681 1.764741943359375 0.651 Q 1.744491943359375 0.621 1.731741943359375 0.6075 Q 1.718991943359375 0.5940000000000001 1.700991943359375 0.5850000000000001 L 1.685991943359375 0.5775000000000001 L 1.685991943359375 0.5715000000000001 Q 1.757991943359375 0.5670000000000001 1.8097419433593749 0.54 Q 1.861491943359375 0.513 1.894491943359375 0.47250000000000003 Q 1.927491943359375 0.43200000000000005 1.942491943359375 0.38475000000000004 Q 1.957491943359375 0.3375 1.957491943359375 0.2925000000000001 Q 1.957491943359375 0.252 1.941741943359375 0.20400000000000007 Q 1.9259919433593748 0.15600000000000003 1.887741943359375 0.11475000000000002 Q 1.849491943359375 0.07350000000000001 1.783491943359375 0.04574999999999996 Q 1.717491943359375 0.018000000000000016 1.616991943359375 0.018000000000000016 L 1.2764919433593749 0.018000000000000016 M 1.412991943359375 0.08400000000000007 L 1.564491943359375 0.08400000000000007 Q 1.6214919433593749 0.08400000000000007 1.6672419433593748 0.10050000000000003 Q 1.712991943359375 0.11699999999999999 1.745991943359375 0.14625 Q 1.778991943359375 0.1755 1.7962419433593748 0.21600000000000008 Q 1.813491943359375 0.25650000000000006 1.813491943359375 0.3045 Q 1.813491943359375 0.3450000000000001 1.7977419433593749 0.3862500000000001 Q 1.781991943359375 0.4275000000000001 1.7504919433593749 0.46125000000000005 Q 1.718991943359375 0.495 1.673241943359375 0.516 Q 1.627491943359375 0.537 1.567491943359375 0.537 L 1.412991943359375 0.537 L 1.412991943359375 0.08400000000000007 M 2.454018310546875 0.018000000000000016 L 2.352018310546875 0.018000000000000016 L 2.352018310546875 1.068 L 2.418018310546875 1.068 L 2.418018310546875 0.21150000000000002 L 2.4240183105468747 0.21150000000000002 L 2.887518310546875 1.086 L 2.914518310546875 1.086 L 3.388518310546875 0.21750000000000003 L 3.394518310546875 0.21750000000000003 L 3.394518310546875 1.068 L 3.531018310546875 1.068 L 3.531018310546875 0.018000000000000016 L 3.427518310546875 0.018000000000000016 L 2.9415183105468747 0.9195000000000001 L 2.935518310546875 0.9195000000000001 L 2.454018310546875 0.018000000000000016 M 4.473019775390625 0.7590000000000001 L 4.617019775390625 1.068 L 4.762519775390625 1.068 L 4.273519775390625 0.018000000000000016 L 4.198519775390625 0.018000000000000016 L 3.7545197753906248 1.068 L 3.8235197753906247 1.068 L 3.955519775390625 0.7590000000000001 L 4.473019775390625 0.7590000000000001 M 4.441519775390625 0.6915 L 3.984019775390625 0.6915 L 4.200019775390625 0.18600000000000005 L 4.206019775390625 0.18600000000000005 L 4.441519775390625 0.6915 M 5.56951171875 0.7590000000000001 L 5.7135117187499995 1.068 L 5.85901171875 1.068 L 5.37001171875 0.018000000000000016 L 5.29501171875 0.018000000000000016 L 4.85101171875 1.068 L 4.92001171875 1.068 L 5.05201171875 0.7590000000000001 L 5.56951171875 0.7590000000000001 M 5.53801171875 0.6915 L 5.0805117187499995 0.6915 L 5.29651171875 0.18600000000000005 L 5.30251171875 0.18600000000000005 L 5.53801171875 0.6915 M 6.9285036621093745 0.018000000000000016 L 6.9285036621093745 0.8205 L 6.922503662109374 0.8205 L 6.090003662109375 0 L 6.082503662109374 0 L 6.082503662109374 1.068 L 6.151503662109374 1.068 L 6.151503662109374 0.26550000000000007 L 6.157503662109375 0.26550000000000007 L 6.990003662109375 1.086 L 6.9975036621093745 1.086 L 6.9975036621093745 0.018000000000000016 L 6.9285036621093745 0.018000000000000016" fill="#ffffff" fill-rule="nonzero"></path></g><g></g></g><defs><clipPath id="SvgjsClipPath1001"><path d=" M 0.48079912433528404 -3.816349734189182 h 6.215868792345058 v 3.566349734189182 h -6.215868792345058 Z"></path></clipPath><clipPath id="SvgjsClipPath1000f3b181fa-d6b8-47f3-bbbe-932d3be031cc"><path d=" M 0.48079912433528404 -3.816349734189182 L 6.696667916680342 -3.816349734189182 L 6.696667916680342 -0.25 L 0.48079912433528404 -0.25 Z"></path></clipPath></defs></svg>